<?xml version="1.0" encoding="UTF-8" standalone="no"?>
<!-- Created with Inkscape (http://www.inkscape.org/) -->

<svg
   xmlns:dc="http://purl.org/dc/elements/1.1/"
   xmlns:cc="http://creativecommons.org/ns#"
   xmlns:rdf="http://www.w3.org/1999/02/22-rdf-syntax-ns#"
   xmlns:svg="http://www.w3.org/2000/svg"
   xmlns="http://www.w3.org/2000/svg"
   xmlns:sodipodi="http://sodipodi.sourceforge.net/DTD/sodipodi-0.dtd"
   xmlns:inkscape="http://www.inkscape.org/namespaces/inkscape"
   width="234"
   height="60"
   viewBox="0 0 61.912498 15.875001"
   version="1.1"
   id="svg58875"
   inkscape:version="0.92.3 (2405546, 2018-03-11)"
   sodipodi:docname="fkm-logo.svg">
  <defs
     id="defs58869" />
  <sodipodi:namedview
     id="base"
     pagecolor="#ffffff"
     bordercolor="#666666"
     borderopacity="1.0"
     inkscape:pageopacity="0.0"
     inkscape:pageshadow="2"
     inkscape:zoom="3.959798"
     inkscape:cx="84.917369"
     inkscape:cy="-14.658035"
     inkscape:document-units="mm"
     inkscape:current-layer="layer1"
     showgrid="false"
     units="px"
     inkscape:window-width="1920"
     inkscape:window-height="1017"
     inkscape:window-x="0"
     inkscape:window-y="30"
     inkscape:window-maximized="1" />
  <metadata
     id="metadata58872">
    <rdf:RDF>
      <cc:Work
         rdf:about="">
        <dc:format>image/svg+xml</dc:format>
        <dc:type
           rdf:resource="http://purl.org/dc/dcmitype/StillImage" />
        <dc:title></dc:title>
      </cc:Work>
    </rdf:RDF>
  </metadata>
  <g
     inkscape:label="Layer 1"
     inkscape:groupmode="layer"
     id="layer1"
     transform="translate(0,-281.12497)">
    <g
       id="g59493"
       transform="matrix(0.06897924,0,0,0.06897924,29.91335,273.1644)"
       style="fill:#3689e6">
      <path
         id="circle57660"
         d="m -292.09437,127.13005 a 103.34625,103.34625 0 0 0 -103.34614,103.34614 103.34625,103.34625 0 0 0 103.34614,103.34615 103.34625,103.34625 0 0 0 103.34615,-103.34615 103.34625,103.34625 0 0 0 -103.34615,-103.34614 z m 0.44596,21.20955 a 3.5003499,3.5003499 0 0 1 1.66812,0.46509 l 68.01548,39.20278 a 3.5003499,3.5003499 0 0 1 1.75184,3.03133 v 78.40451 a 3.5003499,3.5003499 0 0 1 -1.75184,3.0329 l -68.01548,39.20122 a 3.5003499,3.5003499 0 0 1 -3.49642,0 l -68.01548,-39.20122 a 3.5003499,3.5003499 0 0 1 -1.75183,-3.0329 V 191.0388 a 3.5003499,3.5003499 0 0 1 1.75183,-3.03133 l 68.01548,-39.20278 a 3.5003499,3.5003499 0 0 1 1.8283,-0.46509 z m -7.27914,11.68662 -49.89565,28.75897 49.89565,28.81426 z m 14.58569,0.108 v 57.46473 l 49.80109,-28.76003 z m -62.07995,46.88139 v 46.43332 l 40.20325,-23.21666 z m 109.57213,0 -40.20323,23.21666 40.20323,23.21666 z m -62.07787,35.84949 -49.91272,28.82408 49.91272,28.76671 z m 14.58569,0 v 57.48229 l 49.81813,-28.71245 z"
         style="opacity:1;fill:#3689e6;fill-opacity:1;stroke:none;stroke-width:18;stroke-linecap:round;stroke-linejoin:miter;stroke-miterlimit:4;stroke-dasharray:none;stroke-opacity:1;paint-order:normal"
         inkscape:connector-curvature="0" />
      <g
         style="fill:#3689e6;stroke:none"
         id="g58836"
         transform="translate(-1109.6562,1256.9236)">
        <g
           style="fill:#3689e6;stroke:none"
           id="g58805">
          <path
             style="color:#000000;font-style:normal;font-variant:normal;font-weight:normal;font-stretch:normal;font-size:medium;line-height:normal;font-family:sans-serif;font-variant-ligatures:normal;font-variant-position:normal;font-variant-caps:normal;font-variant-numeric:normal;font-variant-alternates:normal;font-feature-settings:normal;text-indent:0;text-align:start;text-decoration:none;text-decoration-line:none;text-decoration-style:solid;text-decoration-color:#000000;letter-spacing:normal;word-spacing:normal;text-transform:none;writing-mode:lr-tb;direction:ltr;text-orientation:mixed;dominant-baseline:auto;baseline-shift:baseline;text-anchor:start;white-space:normal;shape-padding:0;clip-rule:nonzero;display:inline;overflow:visible;visibility:visible;opacity:1;isolation:auto;mix-blend-mode:normal;color-interpolation:sRGB;color-interpolation-filters:linearRGB;solid-color:#000000;solid-opacity:1;vector-effect:none;fill:#3689e6;fill-opacity:1;fill-rule:evenodd;stroke:none;stroke-width:6.99999952;stroke-linecap:butt;stroke-linejoin:miter;stroke-miterlimit:4;stroke-dasharray:none;stroke-dashoffset:0;stroke-opacity:1;color-rendering:auto;image-rendering:auto;shape-rendering:auto;text-rendering:auto;enable-background:accumulate"
             d="m 1019.7051,-1104.7012 v 148.27542 h 7 v -148.27542 z"
             id="path57678"
             inkscape:connector-curvature="0" />
          <path
             id="path58811"
             d="m 1023.2055,-1097.8405 c -3.864,0 -7,-3.136 -7,-7 0,-3.864 3.136,-7 7,-7 3.864,0 7,3.136 7,7 0,3.864 -3.136,7 -7,7 z"
             style="fill:#3689e6;fill-opacity:1;fill-rule:evenodd;stroke:none;stroke-width:1.40000001pt;stroke-opacity:1"
             inkscape:connector-curvature="0" />
          <path
             id="path58813"
             d="m 1023.2055,-949.56607 c -3.864,0 -7,-3.136 -7,-7 0,-3.864 3.136,-7 7,-7 3.864,0 7,3.136 7,7 0,3.864 -3.136,7 -7,7 z"
             style="fill:#3689e6;fill-opacity:1;fill-rule:evenodd;stroke:none;stroke-width:1.40000001pt;stroke-opacity:1"
             inkscape:connector-curvature="0" />
        </g>
        <path
           style="color:#000000;font-style:normal;font-variant:normal;font-weight:normal;font-stretch:normal;font-size:medium;line-height:normal;font-family:sans-serif;font-variant-ligatures:normal;font-variant-position:normal;font-variant-caps:normal;font-variant-numeric:normal;font-variant-alternates:normal;font-feature-settings:normal;text-indent:0;text-align:start;text-decoration:none;text-decoration-line:none;text-decoration-style:solid;text-decoration-color:#000000;letter-spacing:normal;word-spacing:normal;text-transform:none;writing-mode:lr-tb;direction:ltr;text-orientation:mixed;dominant-baseline:auto;baseline-shift:baseline;text-anchor:start;white-space:normal;shape-padding:0;clip-rule:nonzero;display:inline;overflow:visible;visibility:visible;opacity:1;isolation:auto;mix-blend-mode:normal;color-interpolation:sRGB;color-interpolation-filters:linearRGB;solid-color:#000000;solid-opacity:1;vector-effect:none;fill:#3689e6;fill-opacity:1;fill-rule:evenodd;stroke:none;stroke-width:6.99999952;stroke-linecap:butt;stroke-linejoin:miter;stroke-miterlimit:4;stroke-dasharray:none;stroke-dashoffset:0;stroke-opacity:1;color-rendering:auto;image-rendering:auto;shape-rendering:auto;text-rendering:auto;enable-background:accumulate"
           d="m 955.51758,-1073.6953 v 86.26366 l 67.68942,-39.08986 67.6875,39.08986 v -86.26366 l -5.2519,3.0332 -62.4356,36.0566 z m 7,12.125 53.68942,31.0078 -53.68942,31.00586 z m 121.37692,0 v 62.01366 l -53.6894,-31.00586 z"
           id="path57680"
           inkscape:connector-curvature="0" />
        <g
           style="fill:#3689e6;stroke:none"
           id="g58793">
          <path
             style="color:#000000;font-style:normal;font-variant:normal;font-weight:normal;font-stretch:normal;font-size:medium;line-height:normal;font-family:sans-serif;font-variant-ligatures:normal;font-variant-position:normal;font-variant-caps:normal;font-variant-numeric:normal;font-variant-alternates:normal;font-feature-settings:normal;text-indent:0;text-align:start;text-decoration:none;text-decoration-line:none;text-decoration-style:solid;text-decoration-color:#000000;letter-spacing:normal;word-spacing:normal;text-transform:none;writing-mode:lr-tb;direction:ltr;text-orientation:mixed;dominant-baseline:auto;baseline-shift:baseline;text-anchor:start;white-space:normal;shape-padding:0;clip-rule:nonzero;display:inline;overflow:visible;visibility:visible;opacity:1;isolation:auto;mix-blend-mode:normal;color-interpolation:sRGB;color-interpolation-filters:linearRGB;solid-color:#000000;solid-opacity:1;vector-effect:none;fill:#3689e6;fill-opacity:1;fill-rule:evenodd;stroke:none;stroke-width:6.99999952;stroke-linecap:butt;stroke-linejoin:miter;stroke-miterlimit:4;stroke-dasharray:none;stroke-dashoffset:0;stroke-opacity:1;color-rendering:auto;image-rendering:auto;shape-rendering:auto;text-rendering:auto;enable-background:accumulate"
             d="m 1231.5879,-1069.8359 v 80.19918 h 7 v -68.07418 l 60.6875,35.0488 60.6894,-35.0488 v 68.07418 h 7 v -80.19918 l -67.6894,39.0898 z"
             id="path57682"
             inkscape:connector-curvature="0" />
          <path
             id="path58799"
             d="m 1235.0878,-996.49601 c 3.864,0 7,3.136 7,7 0,3.864 -3.136,7 -7,7 -3.864,0 -7,-3.136 -7,-7 0,-3.864 3.136,-7 7,-7 z"
             style="fill:#3689e6;fill-opacity:1;fill-rule:evenodd;stroke:none;stroke-width:1.40000001pt;stroke-opacity:1"
             inkscape:connector-curvature="0" />
          <path
             id="path58801"
             d="m 1363.4642,-982.77601 c -3.864,0 -7,-3.136 -7,-7 0,-3.864 3.136,-7 7,-7 3.864,0 7,3.136 7,7 0,3.864 -3.136,7 -7,7 z"
             style="fill:#3689e6;fill-opacity:1;fill-rule:evenodd;stroke:none;stroke-width:1.40000001pt;stroke-opacity:1"
             inkscape:connector-curvature="0" />
        </g>
        <g
           style="fill:#3689e6;stroke:none"
           id="g58783">
          <path
             style="color:#000000;font-style:normal;font-variant:normal;font-weight:normal;font-stretch:normal;font-size:medium;line-height:normal;font-family:sans-serif;font-variant-ligatures:normal;font-variant-position:normal;font-variant-caps:normal;font-variant-numeric:normal;font-variant-alternates:normal;font-feature-settings:normal;text-indent:0;text-align:start;text-decoration:none;text-decoration-line:none;text-decoration-style:solid;text-decoration-color:#000000;letter-spacing:normal;word-spacing:normal;text-transform:none;writing-mode:lr-tb;direction:ltr;text-orientation:mixed;dominant-baseline:auto;baseline-shift:baseline;text-anchor:start;white-space:normal;shape-padding:0;clip-rule:nonzero;display:inline;overflow:visible;visibility:visible;opacity:1;isolation:auto;mix-blend-mode:normal;color-interpolation:sRGB;color-interpolation-filters:linearRGB;solid-color:#000000;solid-opacity:1;vector-effect:none;fill:#3689e6;fill-opacity:1;fill-rule:evenodd;stroke:none;stroke-width:6.99999952;stroke-linecap:butt;stroke-linejoin:miter;stroke-miterlimit:4;stroke-dasharray:none;stroke-dashoffset:0;stroke-opacity:1;color-rendering:auto;image-rendering:auto;shape-rendering:auto;text-rendering:auto;enable-background:accumulate"
             d="m 1396.459,-1069.8359 v 80.19918 h 7 v -68.07418 l 60.6875,35.0488 60.6875,-35.0469 v 68.07228 h 7 v -80.19918 l -67.6875,39.0898 z"
             id="path57684"
             inkscape:connector-curvature="0" />
          <path
             id="path58789"
             d="m 1399.9584,-996.49601 c 3.864,0 7,3.136 7,7 0,3.864 -3.136,7 -7,7 -3.864,0 -7,-3.136 -7,-7 0,-3.864 3.136,-7 7,-7 z"
             style="fill:#3689e6;fill-opacity:1;fill-rule:evenodd;stroke:none;stroke-width:1.40000001pt;stroke-opacity:1"
             inkscape:connector-curvature="0" />
          <path
             id="path58791"
             d="m 1528.3348,-982.77601 c -3.864,0 -7,-3.136 -7,-7 0,-3.864 3.136,-7 7,-7 3.864,0 7,3.136 7,7 0,3.864 -3.136,7 -7,7 z"
             style="fill:#3689e6;fill-opacity:1;fill-rule:evenodd;stroke:none;stroke-width:1.40000001pt;stroke-opacity:1"
             inkscape:connector-curvature="0" />
        </g>
        <g
           style="fill:#3689e6;stroke:none"
           id="g58773">
          <path
             style="color:#000000;font-style:normal;font-variant:normal;font-weight:normal;font-stretch:normal;font-size:medium;line-height:normal;font-family:sans-serif;font-variant-ligatures:normal;font-variant-position:normal;font-variant-caps:normal;font-variant-numeric:normal;font-variant-alternates:normal;font-feature-settings:normal;text-indent:0;text-align:start;text-decoration:none;text-decoration-line:none;text-decoration-style:solid;text-decoration-color:#000000;letter-spacing:normal;word-spacing:normal;text-transform:none;writing-mode:lr-tb;direction:ltr;text-orientation:mixed;dominant-baseline:auto;baseline-shift:baseline;text-anchor:start;white-space:normal;shape-padding:0;clip-rule:nonzero;display:inline;overflow:visible;visibility:visible;opacity:1;isolation:auto;mix-blend-mode:normal;color-interpolation:sRGB;color-interpolation-filters:linearRGB;solid-color:#000000;solid-opacity:1;vector-effect:none;fill:#3689e6;fill-opacity:1;fill-rule:evenodd;stroke:none;stroke-width:6.99999952;stroke-linecap:butt;stroke-linejoin:miter;stroke-miterlimit:4;stroke-dasharray:none;stroke-dashoffset:0;stroke-opacity:1;color-rendering:auto;image-rendering:auto;shape-rendering:auto;text-rendering:auto;enable-background:accumulate"
             d="m 1127.1953,-1104.7012 v 114.59964 h 7 v -114.59964 z"
             id="path57686"
             inkscape:connector-curvature="0" />
          <path
             inkscape:connector-curvature="0"
             style="fill:#3689e6;fill-opacity:1;fill-rule:evenodd;stroke:none;stroke-width:1.40000001pt;stroke-opacity:1"
             d="m 1130.6944,-1097.8405 c -3.864,0 -7,-3.136 -7,-7 0,-3.864 3.136,-7 7,-7 3.864,0 7,3.136 7,7 0,3.864 -3.136,7 -7,7 z"
             id="path58779" />
          <path
             inkscape:connector-curvature="0"
             style="fill:#3689e6;fill-opacity:1;fill-rule:evenodd;stroke:none;stroke-width:1.40000001pt;stroke-opacity:1"
             d="m 1130.6944,-983.24176 c -3.864,0 -7,-3.136 -7,-7 0,-3.864 3.136,-7 7,-7 3.864,0 7,3.136 7,7 0,3.864 -3.136,7 -7,7 z"
             id="path58781" />
        </g>
        <g
           style="fill:#3689e6;stroke:none"
           id="g58423">
          <path
             style="color:#000000;font-style:normal;font-variant:normal;font-weight:normal;font-stretch:normal;font-size:medium;line-height:normal;font-family:sans-serif;font-variant-ligatures:normal;font-variant-position:normal;font-variant-caps:normal;font-variant-numeric:normal;font-variant-alternates:normal;font-feature-settings:normal;text-indent:0;text-align:start;text-decoration:none;text-decoration-line:none;text-decoration-style:solid;text-decoration-color:#000000;letter-spacing:normal;word-spacing:normal;text-transform:none;writing-mode:lr-tb;direction:ltr;text-orientation:mixed;dominant-baseline:auto;baseline-shift:baseline;text-anchor:start;white-space:normal;shape-padding:0;clip-rule:nonzero;display:inline;overflow:visible;visibility:visible;opacity:1;isolation:auto;mix-blend-mode:normal;color-interpolation:sRGB;color-interpolation-filters:linearRGB;solid-color:#000000;solid-opacity:1;vector-effect:none;fill:#3689e6;fill-opacity:1;fill-rule:evenodd;stroke:none;stroke-width:6.99999952;stroke-linecap:butt;stroke-linejoin:miter;stroke-miterlimit:4;stroke-dasharray:none;stroke-dashoffset:0;stroke-opacity:1;color-rendering:auto;image-rendering:auto;shape-rendering:auto;text-rendering:auto;enable-background:accumulate"
             d="m 1193.1328,-1070.6621 -64.1777,37.0625 v 6.0723 l 64.1777,37.06441 3.5,-6.0625 -58.9394,-34.03711 58.9394,-34.0391 z"
             id="path57688"
             inkscape:connector-curvature="0" />
          <path
             inkscape:connector-curvature="0"
             style="fill:#3689e6;fill-opacity:1;fill-rule:evenodd;stroke:none;stroke-width:1.40000001pt;stroke-opacity:1"
             d="m 1188.9421,-996.92534 c 1.9323,-3.34606 6.2163,-4.49346 9.5624,-2.5611 3.3461,1.93238 4.4935,6.21636 2.5611,9.56246 -1.9324,3.34611 -6.2163,4.49348 -9.5624,2.56111 -3.3461,-1.93238 -4.4935,-6.21636 -2.5611,-9.56247 z"
             id="path58429" />
          <path
             inkscape:connector-curvature="0"
             style="fill:#3689e6;fill-opacity:1;fill-rule:evenodd;stroke:none;stroke-width:1.40000001pt;stroke-opacity:1"
             d="m 1200.8231,-1071.0626 c 1.9324,3.3461 0.785,7.6301 -2.5611,9.5625 -3.3461,1.9324 -7.63,0.785 -9.5624,-2.5611 -1.9324,-3.3461 -0.785,-7.6301 2.5611,-9.5625 3.3461,-1.9323 7.6301,-0.785 9.5624,2.5611 z"
             id="path58431" />
        </g>
      </g>
    </g>
  </g>
</svg>
